#Comment line ignore any data following # character 
#Hierarchical Translation and Rotation (.htr) file 
[Header]	
#Header keywords are followed by a single value 
FileType HTR		#Single word string
DataType HTRS		#Translation followed by rotation and scale data
FileVersion 1		#integer
NumSegments 25		#integer
NumFrames 4		#integer
DataFrameRate 30		#integer, data frame rate in this file
EulerRotationOrder ZYX
CalibrationUnits mm
RotationUnits Degrees
GlobalAxisofGravity Y
BoneLengthAxis Y
ScaleFactor 1.00
[SegmentNames&Hierarchy]
#CHILD	PARENT
BN_Tick_Root GLOBAL
BN_Torso BN_Tick_Root
BN_L_Leg_Front01 BN_Torso
BN_L_Leg_Rear01 BN_Torso
BN_MetalTop BN_Torso
BN_Neck BN_Torso
BN_R_Leg_Front01 BN_Torso
BN_R_Leg_Rear01 BN_Torso
BN_Sack BN_Torso
BN_L_Leg_Front02 BN_L_Leg_Front01
BN_L_Leg_Front03 BN_L_Leg_Front02
BN_L_Leg_Rear02 BN_L_Leg_Rear01
BN_L_Leg_Rear03 BN_L_Leg_Rear02
BN_Head BN_Neck
BN_Needle BN_Head
BN_R_Leg_Front02 BN_R_Leg_Front01
BN_R_Leg_Front03 BN_R_Leg_Front02
BN_R_Leg_Rear02 BN_R_Leg_Rear01
BN_R_Leg_Rear03 BN_R_Leg_Rear02
BN_SackDef01 BN_Sack
BN_SackDef02 BN_Sack
BN_SackDef03 BN_Sack
BN_SackDef04 BN_Sack
BN_SackDef05 BN_Sack
BN_SackDef06 BN_Sack
[BasePosition]
#SegmentName Tx, Ty, Tz, Rx, Ry, Rz, BoneLength
BN_Tick_Root 0.000000 0.000000 0.000000 -90.000000 0.000000 0.000000 10.000000 
BN_Torso 0.000000 0.000000 0.000000 0.000000 0.000000 0.000000 10.000000 
BN_L_Leg_Front01 0.000000 0.000000 0.000000 0.000000 0.000000 0.000000 10.000000 
BN_L_Leg_Rear01 0.000000 0.000000 0.000000 0.000000 0.000000 0.000000 10.000000 
BN_MetalTop 0.000000 0.000000 0.000000 0.000000 0.000000 0.000000 10.000000 
BN_Neck 0.000000 0.000000 0.000000 0.000000 0.000000 0.000000 10.000000 
BN_R_Leg_Front01 0.000000 0.000000 0.000000 0.000000 0.000000 0.000000 10.000000 
BN_R_Leg_Rear01 0.000000 0.000000 0.000000 0.000000 0.000000 0.000000 10.000000 
BN_Sack 0.000000 0.000000 0.000000 0.000000 0.000000 0.000000 10.000000 
BN_L_Leg_Front02 0.000000 0.000000 0.000000 0.000000 0.000000 0.000000 10.000000 
BN_L_Leg_Front03 0.000000 0.000000 0.000000 0.000000 0.000000 0.000000 10.000000 
BN_L_Leg_Rear02 0.000000 0.000000 0.000000 0.000000 0.000000 0.000000 10.000000 
BN_L_Leg_Rear03 0.000000 0.000000 0.000000 0.000000 0.000000 0.000000 10.000000 
BN_Head 0.000000 0.000000 0.000000 0.000000 0.000000 0.000000 10.000000 
BN_Needle 0.000000 0.000000 0.000000 0.000000 0.000000 0.000000 10.000000 
BN_R_Leg_Front02 0.000000 0.000000 0.000000 0.000000 0.000000 0.000000 10.000000 
BN_R_Leg_Front03 0.000000 0.000000 0.000000 0.000000 0.000000 0.000000 10.000000 
BN_R_Leg_Rear02 0.000000 0.000000 0.000000 0.000000 0.000000 0.000000 10.000000 
BN_R_Leg_Rear03 0.000000 0.000000 0.000000 0.000000 0.000000 0.000000 10.000000 
BN_SackDef01 0.000000 0.000000 0.000000 0.000000 0.000000 0.000000 10.000000 
BN_SackDef02 0.000000 0.000000 0.000000 0.000000 0.000000 0.000000 10.000000 
BN_SackDef03 0.000000 0.000000 0.000000 0.000000 0.000000 0.000000 10.000000 
BN_SackDef04 0.000000 0.000000 0.000000 0.000000 0.000000 0.000000 10.000000 
BN_SackDef05 0.000000 0.000000 0.000000 0.000000 0.000000 0.000000 10.000000 
BN_SackDef06 0.000000 0.000000 0.000000 0.000000 0.000000 0.000000 10.000000 
#Beginning of Data. Separated by tabs
#Fr	Tx	Ty	Tz	Rx	Ry	Rz	SF
[BN_Tick_Root]
32 50.797264 403.171783 -0.000375 0.000000 -0.000000 70.652260 406.359253
33 36.955666 403.531311 -0.000394 0.000000 -0.000000 71.462570 405.219971
34 24.726749 403.820862 -0.000411 0.000000 -0.000000 72.272865 404.577179
35 14.513493 404.042480 -0.000424 0.000000 -0.000000 72.763824 404.303070
[BN_Torso]
32 16.203976 -63.530304 213.800323 7.693884 0.528854 -26.144264 223.627472
33 12.035324 -49.130817 213.800354 10.468640 0.719746 -21.651506 219.702713
34 7.866681 -34.731358 213.800369 13.082649 0.900941 -17.457224 216.745819
35 4.654795 -21.349758 213.800385 15.387984 1.060101 -13.537484 214.914124
[BN_L_Leg_Front01]
32 -68.477791 10.734189 -26.804373 -40.206570 54.234596 149.806091 74.316254
33 -68.477791 10.734189 -26.804373 -39.600990 51.650494 147.877243 74.316254
34 -68.477791 10.734189 -26.804373 -33.845753 55.683079 153.234756 74.316254
35 -68.477791 10.734189 -26.804373 -29.075911 57.977707 157.160706 74.316254
[BN_L_Leg_Rear01]
32 -72.133743 -73.994843 -18.268616 70.844978 41.404736 -122.405594 104.939293
33 -72.133743 -73.994843 -18.268616 73.281281 38.033928 -122.319199 104.939293
34 -72.133743 -73.994843 -18.268616 75.563393 34.800484 -122.596558 104.939293
35 -72.133743 -73.994843 -18.268616 77.595634 31.964182 -123.119286 104.939293
[BN_MetalTop]
32 0.000008 13.737477 26.403606 89.999710 -12.929120 -90.000313 29.763546
33 0.000008 13.737477 26.403606 89.999992 -12.929123 -89.999992 29.763546
34 0.000008 13.737477 26.403606 90.000267 -12.929120 -89.999664 29.763546
35 0.000008 13.737477 26.403606 90.000557 -12.929121 -89.999359 29.763546
[BN_Neck]
32 0.000014 95.233284 10.002091 -111.331184 -70.833244 106.667213 95.757088
33 0.000014 95.233284 10.002091 -126.419456 -66.379410 117.110481 95.757088
34 0.000014 95.233284 10.002091 -135.318604 -62.793159 122.737282 95.757088
35 0.000014 95.233284 10.002091 -138.422272 -61.353458 124.605988 95.757088
[BN_R_Leg_Front01]
32 68.477768 10.734107 -26.804314 39.150063 57.976913 44.150692 74.316193
33 68.477768 10.734107 -26.804314 35.242790 63.027580 49.981434 74.316193
34 68.477768 10.734107 -26.804314 38.670174 56.450706 52.131557 74.316193
35 68.477768 10.734107 -26.804314 40.731476 48.482609 50.891178 74.316193
[BN_R_Leg_Rear01]
32 72.133751 -73.994873 -18.268644 -68.010841 31.125305 -71.705811 104.939331
33 72.133751 -73.994873 -18.268644 -68.921799 22.557480 -74.107796 104.939331
34 72.133751 -73.994873 -18.268644 -69.568657 16.774483 -75.125748 104.939331
35 72.133751 -73.994873 -18.268644 -70.250237 20.633936 -72.887207 104.939331
[BN_Sack]
32 -0.000000 -78.024918 33.657791 89.998695 -2.748793 -90.000740 84.974907
33 -0.000000 -78.024918 33.657791 90.000114 -2.384122 -90.000938 84.974907
34 -0.000000 -78.024918 33.657791 90.001503 -2.019466 -90.001122 84.974907
35 -0.000000 -78.024918 33.657791 90.002914 -1.654811 -90.001305 84.974907
[BN_L_Leg_Front02]
32 142.805023 -0.000015 -0.000104 6.969627 -18.297279 -151.124954 142.805023
33 142.805023 -0.000015 -0.000104 7.910618 -18.750185 -153.866776 142.805023
34 142.805023 -0.000015 -0.000104 -1.143286 -18.230158 -119.483627 142.805023
35 142.805023 -0.000015 -0.000104 -6.742465 -14.057725 -92.810623 142.805023
[BN_L_Leg_Front03]
32 124.143021 -0.000045 0.000007 0.353534 -0.239885 147.984543 124.143021
33 124.143021 -0.000045 0.000007 0.351558 -0.228374 149.320053 124.143021
34 124.143021 -0.000045 0.000007 0.354344 -0.356398 127.440407 124.143021
35 124.143021 -0.000045 0.000007 0.352220 -0.442461 101.289429 124.143021
[BN_L_Leg_Rear02]
32 139.939041 0.000075 -0.000022 11.354507 -25.548906 89.371452 139.939041
33 139.939041 0.000075 -0.000022 11.383706 -23.851559 87.596794 139.939041
34 139.939041 0.000075 -0.000022 11.974449 -22.872606 85.134010 139.939041
35 139.939041 0.000075 -0.000022 13.609831 -23.439548 82.105606 139.939041
[BN_L_Leg_Rear03]
32 142.839615 0.000179 -0.000060 0.000411 -0.002311 -110.145432 142.839615
33 142.839615 0.000179 -0.000060 0.000363 -0.002319 -107.806198 142.839615
34 142.839615 0.000179 -0.000060 0.000302 -0.002328 -104.802483 142.839615
35 142.839615 0.000179 -0.000060 0.000235 -0.002335 -101.487984 142.839615
[BN_Head]
32 57.062447 -0.000030 0.000000 -5.572070 -5.345726 -6.309508 57.062447
33 57.062447 -0.000030 0.000000 -11.308417 -10.491330 -3.449387 57.062447
34 57.062447 -0.000030 0.000000 -15.563829 -14.307274 -1.323148 57.062447
35 57.062447 -0.000030 0.000000 -17.226646 -15.799129 -0.493661 57.062447
[BN_Needle]
32 33.915195 69.677689 -0.000093 0.000003 0.000030 87.896805 77.493362
33 33.915195 69.677689 -0.000092 0.000003 0.000030 87.896805 77.493362
34 33.915195 69.677689 -0.000091 0.000003 0.000030 87.896805 77.493362
35 33.915195 69.677689 -0.000091 0.000003 0.000030 87.896805 77.493362
[BN_R_Leg_Front02]
32 142.804947 -0.000060 0.000060 -6.626283 -24.035831 144.144867 142.804947
33 142.804947 -0.000060 0.000060 3.113131 -24.716984 115.007942 142.804947
34 142.804947 -0.000060 0.000060 -1.399807 -25.036594 128.184250 142.804947
35 142.804947 -0.000060 0.000060 -6.704225 -24.056122 144.357712 142.804947
[BN_R_Leg_Front03]
32 124.143005 -0.000060 -0.000156 -0.355454 -0.265505 -143.844101 124.143005
33 124.143005 -0.000060 -0.000156 -0.353944 -0.373749 -123.947800 124.143005
34 124.143005 -0.000060 -0.000156 -0.348867 -0.317474 -133.955841 124.143005
35 124.143005 -0.000060 -0.000156 -0.353647 -0.261173 -143.963867 124.143005
[BN_R_Leg_Rear02]
32 139.939011 -0.000149 0.000015 -18.232552 -20.191090 -68.434952 139.939011
33 139.939011 -0.000149 0.000015 -16.585876 -19.987062 -71.237259 139.939011
34 139.939011 -0.000149 0.000015 -15.440717 -20.242355 -73.943047 139.939011
35 139.939011 -0.000149 0.000015 -15.072720 -21.906322 -77.060982 139.939011
[BN_R_Leg_Rear03]
32 142.839417 0.000075 0.000119 0.002343 0.000134 83.446053 142.839417
33 142.839417 0.000075 0.000119 0.002348 0.000062 86.978897 142.839417
34 142.839417 0.000075 0.000119 0.002347 -0.000010 90.511726 142.839417
35 142.839417 0.000075 0.000119 0.002345 -0.000102 94.980484 142.839417
[BN_SackDef01]
32 249.782272 -3.760844 42.949425 -128.408218 -44.374973 -11.740845 253.475800
33 249.782272 -3.760844 42.949425 -128.408218 -44.374973 -11.740845 253.475800
34 249.782272 -3.760844 42.949425 -128.408218 -44.374973 -11.740845 253.475800
35 249.782272 -3.760844 42.949425 -128.408218 -44.374973 -11.740845 253.475800
[BN_SackDef02]
32 138.789795 -62.131748 45.674385 32.077126 -27.375721 -88.781525 158.773758
33 138.789795 -62.131748 45.674385 32.077126 -27.375721 -88.781525 158.773758
34 138.789795 -62.131748 45.674385 32.077126 -27.375721 -88.781525 158.773758
35 138.789795 -62.131748 45.674385 32.077126 -27.375721 -88.781525 158.773758
[BN_SackDef03]
32 249.782272 -3.760785 -42.949661 18.144459 44.375008 -11.740894 253.475845
33 249.782272 -3.760785 -42.949661 18.144459 44.375008 -11.740894 253.475845
34 249.782272 -3.760785 -42.949661 18.144459 44.375008 -11.740894 253.475845
35 249.782272 -3.760785 -42.949661 18.144459 44.375008 -11.740894 253.475845
[BN_SackDef04]
32 138.789780 -62.131645 -45.674473 146.059982 27.375723 -88.781555 158.773743
33 138.789780 -62.131645 -45.674473 146.059982 27.375723 -88.781555 158.773743
34 138.789780 -62.131645 -45.674473 146.059982 27.375723 -88.781555 158.773743
35 138.789780 -62.131645 -45.674473 146.059982 27.375723 -88.781555 158.773743
[BN_SackDef05]
32 118.790161 46.167137 -63.831196 0.155741 51.314110 90.605110 142.537460
33 118.790161 46.167137 -63.831196 0.155741 51.314110 90.605110 142.537460
34 118.790161 46.167137 -63.831196 0.155741 51.314110 90.605110 142.537460
35 118.790161 46.167137 -63.831196 0.155741 51.314110 90.605110 142.537460
[BN_SackDef06]
32 118.790207 46.167194 63.831219 152.058487 -51.314072 90.605019 142.537537
33 118.790207 46.167194 63.831219 152.058487 -51.314072 90.605019 142.537537
34 118.790207 46.167194 63.831219 152.058487 -51.314072 90.605019 142.537537
35 118.790207 46.167194 63.831219 152.058487 -51.314072 90.605019 142.537537
